<mxfile host="app.diagrams.net" modified="2022-05-26T13:59:43.257Z" agent="5.0 (X11; Linux x86_64) AppleWebKit/537.36 (KHTML, like Gecko) Chrome/100.0.4896.75 Safari/537.36" etag="4zfP9-JiMAqKkFwoEqV_" version="18.1.2" type="github">
  <diagram id="2bfwKem6itLgLB9FDuRq" name="Page-1">
    <mxGraphModel dx="1350" dy="744" grid="1" gridSize="10" guides="1" tooltips="1" connect="1" arrows="1" fold="1" page="1" pageScale="1" pageWidth="827" pageHeight="1169" math="0" shadow="0">
      <root>
        <mxCell id="0" />
        <mxCell id="1" parent="0" />
        <mxCell id="-1a5IulWf2HKNil-JK7W-41" style="edgeStyle=orthogonalEdgeStyle;rounded=0;orthogonalLoop=1;jettySize=auto;html=1;exitX=0.5;exitY=0;exitDx=0;exitDy=0;entryX=0.5;entryY=1;entryDx=0;entryDy=0;fontSize=20;" edge="1" parent="1" source="-1a5IulWf2HKNil-JK7W-39" target="-1a5IulWf2HKNil-JK7W-40">
          <mxGeometry relative="1" as="geometry" />
        </mxCell>
        <mxCell id="-1a5IulWf2HKNil-JK7W-39" value="主角" style="rounded=0;whiteSpace=wrap;html=1;fontSize=20;" vertex="1" parent="1">
          <mxGeometry x="320" y="540" width="120" height="60" as="geometry" />
        </mxCell>
        <mxCell id="-1a5IulWf2HKNil-JK7W-53" style="edgeStyle=orthogonalEdgeStyle;rounded=0;orthogonalLoop=1;jettySize=auto;html=1;exitX=0.5;exitY=0;exitDx=0;exitDy=0;entryX=0.5;entryY=1;entryDx=0;entryDy=0;fontSize=20;" edge="1" parent="1" source="-1a5IulWf2HKNil-JK7W-40" target="-1a5IulWf2HKNil-JK7W-44">
          <mxGeometry relative="1" as="geometry">
            <mxPoint x="380" y="340" as="targetPoint" />
            <Array as="points">
              <mxPoint x="380" y="350" />
              <mxPoint x="270" y="350" />
            </Array>
          </mxGeometry>
        </mxCell>
        <mxCell id="-1a5IulWf2HKNil-JK7W-54" style="edgeStyle=orthogonalEdgeStyle;rounded=0;orthogonalLoop=1;jettySize=auto;html=1;entryX=0.5;entryY=1;entryDx=0;entryDy=0;fontSize=20;" edge="1" parent="1" target="-1a5IulWf2HKNil-JK7W-47">
          <mxGeometry relative="1" as="geometry">
            <mxPoint x="480" y="340" as="targetPoint" />
            <mxPoint x="330" y="350" as="sourcePoint" />
            <Array as="points">
              <mxPoint x="380" y="350" />
              <mxPoint x="480" y="350" />
            </Array>
          </mxGeometry>
        </mxCell>
        <mxCell id="-1a5IulWf2HKNil-JK7W-40" value="購買商品" style="ellipse;whiteSpace=wrap;html=1;fontSize=20;" vertex="1" parent="1">
          <mxGeometry x="320" y="410" width="120" height="80" as="geometry" />
        </mxCell>
        <mxCell id="-1a5IulWf2HKNil-JK7W-42" value="選擇商品" style="text;html=1;resizable=0;autosize=1;align=center;verticalAlign=middle;points=[];fillColor=none;strokeColor=none;rounded=0;fontSize=20;" vertex="1" parent="1">
          <mxGeometry x="390" y="500" width="100" height="30" as="geometry" />
        </mxCell>
        <mxCell id="-1a5IulWf2HKNil-JK7W-57" style="edgeStyle=orthogonalEdgeStyle;rounded=0;orthogonalLoop=1;jettySize=auto;html=1;fontSize=20;" edge="1" parent="1" source="-1a5IulWf2HKNil-JK7W-44">
          <mxGeometry relative="1" as="geometry">
            <mxPoint x="270" y="210" as="targetPoint" />
          </mxGeometry>
        </mxCell>
        <mxCell id="-1a5IulWf2HKNil-JK7W-44" value="飾品" style="shape=datastore;whiteSpace=wrap;html=1;fontSize=20;" vertex="1" parent="1">
          <mxGeometry x="240" y="270" width="60" height="60" as="geometry" />
        </mxCell>
        <mxCell id="-1a5IulWf2HKNil-JK7W-59" style="edgeStyle=orthogonalEdgeStyle;rounded=0;orthogonalLoop=1;jettySize=auto;html=1;fontSize=20;" edge="1" parent="1" source="-1a5IulWf2HKNil-JK7W-45">
          <mxGeometry relative="1" as="geometry">
            <mxPoint x="340" y="210" as="targetPoint" />
          </mxGeometry>
        </mxCell>
        <mxCell id="-1a5IulWf2HKNil-JK7W-45" value="武器" style="shape=datastore;whiteSpace=wrap;html=1;fontSize=20;" vertex="1" parent="1">
          <mxGeometry x="310" y="270" width="60" height="60" as="geometry" />
        </mxCell>
        <mxCell id="-1a5IulWf2HKNil-JK7W-60" style="edgeStyle=orthogonalEdgeStyle;rounded=0;orthogonalLoop=1;jettySize=auto;html=1;fontSize=20;" edge="1" parent="1" source="-1a5IulWf2HKNil-JK7W-46">
          <mxGeometry relative="1" as="geometry">
            <mxPoint x="410" y="210" as="targetPoint" />
          </mxGeometry>
        </mxCell>
        <mxCell id="-1a5IulWf2HKNil-JK7W-46" value="防具" style="shape=datastore;whiteSpace=wrap;html=1;fontSize=20;" vertex="1" parent="1">
          <mxGeometry x="380" y="270" width="60" height="60" as="geometry" />
        </mxCell>
        <mxCell id="-1a5IulWf2HKNil-JK7W-61" style="edgeStyle=orthogonalEdgeStyle;rounded=0;orthogonalLoop=1;jettySize=auto;html=1;fontSize=20;" edge="1" parent="1" source="-1a5IulWf2HKNil-JK7W-47">
          <mxGeometry relative="1" as="geometry">
            <mxPoint x="480" y="210" as="targetPoint" />
          </mxGeometry>
        </mxCell>
        <mxCell id="-1a5IulWf2HKNil-JK7W-47" value="道具" style="shape=datastore;whiteSpace=wrap;html=1;fontSize=20;" vertex="1" parent="1">
          <mxGeometry x="450" y="270" width="60" height="60" as="geometry" />
        </mxCell>
        <mxCell id="-1a5IulWf2HKNil-JK7W-55" value="" style="endArrow=classic;html=1;rounded=0;fontSize=20;" edge="1" parent="1">
          <mxGeometry width="50" height="50" relative="1" as="geometry">
            <mxPoint x="339.5" y="350" as="sourcePoint" />
            <mxPoint x="340" y="330" as="targetPoint" />
          </mxGeometry>
        </mxCell>
        <mxCell id="-1a5IulWf2HKNil-JK7W-56" value="" style="endArrow=classic;html=1;rounded=0;entryX=0.5;entryY=1;entryDx=0;entryDy=0;fontSize=20;" edge="1" parent="1" target="-1a5IulWf2HKNil-JK7W-46">
          <mxGeometry width="50" height="50" relative="1" as="geometry">
            <mxPoint x="410" y="350" as="sourcePoint" />
            <mxPoint x="350" y="340" as="targetPoint" />
          </mxGeometry>
        </mxCell>
        <mxCell id="-1a5IulWf2HKNil-JK7W-62" value="" style="endArrow=none;html=1;rounded=0;fontSize=20;" edge="1" parent="1">
          <mxGeometry width="50" height="50" relative="1" as="geometry">
            <mxPoint x="270" y="210" as="sourcePoint" />
            <mxPoint x="480" y="210" as="targetPoint" />
          </mxGeometry>
        </mxCell>
        <mxCell id="-1a5IulWf2HKNil-JK7W-63" value="" style="endArrow=classic;html=1;rounded=0;fontSize=20;entryX=0.5;entryY=1;entryDx=0;entryDy=0;" edge="1" parent="1" target="-1a5IulWf2HKNil-JK7W-65">
          <mxGeometry width="50" height="50" relative="1" as="geometry">
            <mxPoint x="380" y="210" as="sourcePoint" />
            <mxPoint x="380" y="150" as="targetPoint" />
          </mxGeometry>
        </mxCell>
        <mxCell id="-1a5IulWf2HKNil-JK7W-64" value="商品價格" style="text;html=1;resizable=0;autosize=1;align=center;verticalAlign=middle;points=[];fillColor=none;strokeColor=none;rounded=0;fontSize=20;" vertex="1" parent="1">
          <mxGeometry x="380" y="160" width="100" height="30" as="geometry" />
        </mxCell>
        <mxCell id="-1a5IulWf2HKNil-JK7W-69" style="edgeStyle=orthogonalEdgeStyle;rounded=0;orthogonalLoop=1;jettySize=auto;html=1;exitX=1;exitY=0.5;exitDx=0;exitDy=0;entryX=0.442;entryY=0.025;entryDx=0;entryDy=0;entryPerimeter=0;fontSize=20;" edge="1" parent="1" source="-1a5IulWf2HKNil-JK7W-65" target="-1a5IulWf2HKNil-JK7W-68">
          <mxGeometry relative="1" as="geometry" />
        </mxCell>
        <mxCell id="-1a5IulWf2HKNil-JK7W-65" value="主角" style="shape=datastore;whiteSpace=wrap;html=1;fontSize=20;" vertex="1" parent="1">
          <mxGeometry x="350" y="70" width="60" height="60" as="geometry" />
        </mxCell>
        <mxCell id="-1a5IulWf2HKNil-JK7W-67" value="更新金錢" style="text;html=1;resizable=0;autosize=1;align=center;verticalAlign=middle;points=[];fillColor=none;strokeColor=none;rounded=0;fontSize=20;" vertex="1" parent="1">
          <mxGeometry x="470" y="65" width="100" height="30" as="geometry" />
        </mxCell>
        <mxCell id="-1a5IulWf2HKNil-JK7W-68" value="更新UI" style="ellipse;whiteSpace=wrap;html=1;fontSize=20;" vertex="1" parent="1">
          <mxGeometry x="550" y="240" width="120" height="80" as="geometry" />
        </mxCell>
        <mxCell id="-1a5IulWf2HKNil-JK7W-73" value="" style="endArrow=none;html=1;rounded=0;entryX=0.5;entryY=1;entryDx=0;entryDy=0;fontSize=20;" edge="1" parent="1" target="-1a5IulWf2HKNil-JK7W-68">
          <mxGeometry width="50" height="50" relative="1" as="geometry">
            <mxPoint x="610" y="570" as="sourcePoint" />
            <mxPoint x="440" y="380" as="targetPoint" />
          </mxGeometry>
        </mxCell>
        <mxCell id="-1a5IulWf2HKNil-JK7W-74" value="" style="endArrow=classic;html=1;rounded=0;entryX=1;entryY=0.5;entryDx=0;entryDy=0;fontSize=20;" edge="1" parent="1" target="-1a5IulWf2HKNil-JK7W-39">
          <mxGeometry width="50" height="50" relative="1" as="geometry">
            <mxPoint x="610" y="570" as="sourcePoint" />
            <mxPoint x="440" y="380" as="targetPoint" />
          </mxGeometry>
        </mxCell>
        <mxCell id="-1a5IulWf2HKNil-JK7W-75" value="UI" style="text;html=1;resizable=0;autosize=1;align=center;verticalAlign=middle;points=[];fillColor=none;strokeColor=none;rounded=0;fontSize=20;" vertex="1" parent="1">
          <mxGeometry x="625" y="455" width="40" height="30" as="geometry" />
        </mxCell>
        <mxCell id="-1a5IulWf2HKNil-JK7W-76" value="商品資訊" style="text;html=1;resizable=0;autosize=1;align=center;verticalAlign=middle;points=[];fillColor=none;strokeColor=none;rounded=0;fontSize=20;" vertex="1" parent="1">
          <mxGeometry x="380" y="370" width="100" height="30" as="geometry" />
        </mxCell>
      </root>
    </mxGraphModel>
  </diagram>
</mxfile>
